<svg xmlns="http://www.w3.org/2000/svg" viewBox="0 0 140 240" width="280" height="480">
<defs>
  <linearGradient id="bg" x1="0" y1="0" x2="0" y2="1">
    <stop offset="0" stop-color="#1c2a1f"/><stop offset="1" stop-color="#5d7a45"/>
  </linearGradient>
  <radialGradient id="halo" cx="0.5" cy="0.5" r="0.5">
    <stop offset="0" stop-color="#e7cf7a" stop-opacity="0.45"/><stop offset="1" stop-color="#e7cf7a" stop-opacity="0"/>
  </radialGradient>
</defs>
<rect width="140" height="240" fill="url(#bg)"/>
<circle cx="112" cy="40" r="13" fill="url(#halo)"/><line x1="118.3" y1="40.0" x2="121.3" y2="40.0" stroke="#e7cf7a" stroke-width="1.6" stroke-linecap="round"/><line x1="117.8" y1="42.4" x2="119.4" y2="43.1" stroke="#e7cf7a" stroke-width="1.6" stroke-linecap="round"/><line x1="116.4" y1="44.4" x2="118.5" y2="46.5" stroke="#e7cf7a" stroke-width="1.6" stroke-linecap="round"/><line x1="114.4" y1="45.8" x2="115.1" y2="47.4" stroke="#e7cf7a" stroke-width="1.6" stroke-linecap="round"/><line x1="112.0" y1="46.3" x2="112.0" y2="49.3" stroke="#e7cf7a" stroke-width="1.6" stroke-linecap="round"/><line x1="109.6" y1="45.8" x2="108.9" y2="47.4" stroke="#e7cf7a" stroke-width="1.6" stroke-linecap="round"/><line x1="107.6" y1="44.4" x2="105.5" y2="46.5" stroke="#e7cf7a" stroke-width="1.6" stroke-linecap="round"/><line x1="106.2" y1="42.4" x2="104.6" y2="43.1" stroke="#e7cf7a" stroke-width="1.6" stroke-linecap="round"/><line x1="105.8" y1="40.0" x2="102.8" y2="40.0" stroke="#e7cf7a" stroke-width="1.6" stroke-linecap="round"/><line x1="106.2" y1="37.6" x2="104.6" y2="36.9" stroke="#e7cf7a" stroke-width="1.6" stroke-linecap="round"/><line x1="107.6" y1="35.6" x2="105.5" y2="33.5" stroke="#e7cf7a" stroke-width="1.6" stroke-linecap="round"/><line x1="109.6" y1="34.2" x2="108.9" y2="32.6" stroke="#e7cf7a" stroke-width="1.6" stroke-linecap="round"/><line x1="112.0" y1="33.8" x2="112.0" y2="30.8" stroke="#e7cf7a" stroke-width="1.6" stroke-linecap="round"/><line x1="114.4" y1="34.2" x2="115.1" y2="32.6" stroke="#e7cf7a" stroke-width="1.6" stroke-linecap="round"/><line x1="116.4" y1="35.6" x2="118.5" y2="33.5" stroke="#e7cf7a" stroke-width="1.6" stroke-linecap="round"/><line x1="117.8" y1="37.6" x2="119.4" y2="36.9" stroke="#e7cf7a" stroke-width="1.6" stroke-linecap="round"/><circle cx="112" cy="40" r="5" fill="#e7cf7a"/><path d="M0 168Q35 150 70 162T140 158V240H0Z" fill="#2f4527"/>
<circle cx="70" cy="98" r="46" fill="url(#halo)"/>
<svg x="20" y="46" width="100" height="100" xmlns="http://www.w3.org/2000/svg" viewBox="0 0 980 980" fill="none" shape-rendering="auto"><metadata xmlns:rdf="http://www.w3.org/1999/02/22-rdf-syntax-ns#" xmlns:xsi="http://www.w3.org/2001/XMLSchema-instance" xmlns:dc="http://purl.org/dc/elements/1.1/" xmlns:dcterms="http://purl.org/dc/terms/"><rdf:RDF><rdf:Description><dc:title>Lorelei</dc:title><dc:creator>Lisa Wischofsky</dc:creator><dc:source xsi:type="dcterms:URI">https://www.figma.com/community/file/1198749693280469639</dc:source><dcterms:license xsi:type="dcterms:URI">https://creativecommons.org/publicdomain/zero/1.0/</dcterms:license><dc:rights>Remix of „Lorelei” (https://www.figma.com/community/file/1198749693280469639) by „Lisa Wischofsky”, licensed under „CC0 1.0” (https://creativecommons.org/publicdomain/zero/1.0/)</dc:rights></rdf:Description></rdf:RDF></metadata><mask id="pentacles-3-viewboxMask"><rect width="980" height="980" rx="0" ry="0" x="0" y="0" fill="#fff" /></mask><g mask="url(#pentacles-3-viewboxMask)"><g transform="translate(10 -60)"><path fill-rule="evenodd" clip-rule="evenodd" d="m555 134-4-1-18 3a266 266 0 0 0-97 46c-12 8-23 18-32 29a121 121 0 0 0-43-36l-17-9-7-2c-2 0-4 3-5 5 0 3 2 7 4 10l4 6 8 13 12 17 11 15a248 248 0 0 0-21 9l-14 7-10 5c-10 4-20 10-29 15l-4 2-19 12-3 3c-10 7-20 13-28 22-10 10-19 21-25 34a203 203 0 0 0-21 76l-1 6-4 38v75c0 10 1 20-1 29l-8 53c-6 31-11 62-13 94a185 185 0 0 0 38 138l11 8-3-6-4-5-8-18-2-3a291 291 0 0 1-16-51 206 206 0 0 0 52 79c9 8 19 15 31 18 4 0 7 0 9-3v-8l-1-7-2-9c14 11 29 18 46 21 10 3 21 2 31 0l14-1 8-1 49-4a1209 1209 0 0 1 118-8c15 1 30 4 45 7h10l6-1c13-2 25-5 38-9a179 179 0 0 0 46-25 164 164 0 0 1-19 44l-3 5c6 2 11 4 16 3 14-2 25-10 36-18l6-3 5-2a134 134 0 0 0 59-55c12-22 20-48 21-74 0-23-3-45-10-67l-14-37-3-9a2009 2009 0 0 1-20-53 455 455 0 0 1-21-75v-1c3-16 5-33 5-50-1-16-6-31-12-46a276 276 0 0 1 42 92 241 241 0 0 1 3 74c0 5-1 11 2 15l4-5 4-9 2-7c11-25 15-54 13-82-2-35-14-70-33-100-20-34-47-62-78-86a353 353 0 0 0-215-71l21-22v-1a140 140 0 0 1 41-34l13-7 6-6-2-1Zm215 484-6-14 1 4c3 20 7 40 8 61 2 27 2 54-2 80-3 21-8 43-19 62-5 10-12 19-19 28a174 174 0 0 0 61-120c0-18-2-36-7-54l-17-47Z" fill="#4a2e22"/><path d="M495 234c28 1 56 6 84 15a201 201 0 0 1 100 65c19 25 31 55 35 86a361 361 0 0 1 2 101l-5 34-4 20c-1 2-1 2-3 2-2-4-2-8-2-12-1-15 1-29 2-44 1-24 3-48 1-72l-6-45c-7-28-20-54-40-75-18-18-40-33-63-43-22-9-44-15-67-19-18-3-36-4-54-4a277 277 0 0 0-128 29c-13 9-25 20-35 32a276 276 0 0 0-55 139c-1 24 0 47 8 70l7 15 12 1 1 3c-3 2-7 2-11 3-10 2-20 6-29 12-7 5-14 11-18 19-5 10-3 22-1 33 5 19 17 37 33 49 11 9 25 14 39 16 10 2 20 0 30-1 5 4 8 12 11 17l18 27a136 136 0 0 0 66 50c22 9 45 14 68 19l41 8 17 5v4h-12a535 535 0 0 1-67-8 255 255 0 0 1-84-33c-11-7-21-16-29-27a214 214 0 0 1-16 123c-15 27-40 48-70 57-3 1-7 2-10 1-2 0-2-1-2-3 1-3 4-5 6-6 12-8 26-14 38-23 13-11 24-23 31-38 6-15 10-32 12-49 2-13 3-26 2-40l-4-38-18-36-19 4a88 88 0 0 1-75-38 93 93 0 0 1-20-58c0-9 3-18 8-25s12-13 19-17c5-4 12-6 18-8l-9-24c-5-22-5-45-2-67a292 292 0 0 1 63-149c9-10 18-19 29-26 7-4 14-5 20-9 43-19 90-25 137-22Z" fill="#000"/><path d="M475 243a276 276 0 0 1 121 23c23 10 45 25 63 43 20 21 33 47 40 75l6 45c2 24 0 48-1 72-1 15-3 29-2 44 0 4 0 8 2 12l-1 20c-2 5-2 10-2 16-2 24-2 49-6 74-1 12-3 25-8 36-3 9-8 17-15 24-12 13-27 24-43 33-19 11-39 16-58 24-5 2-10 4-13 8 8 1 15 0 23-2-5 12-6 24-6 36 0 5-1 11 1 16 3 5 8 9 13 12l35 13c22 8 43 18 65 27 2 4 5 7 6 12 6 11 7 23 3 35-5 13-15 24-27 31-16 11-36 19-55 24a494 494 0 0 1-235-7c-20-7-40-14-58-24-14-8-29-18-40-31-6-8-11-19-12-29a122 122 0 0 0 86-107c4-24 4-49 0-73 8 11 18 20 29 27l27 14a331 331 0 0 0 124 27h12v-4l-17-5-41-8c-23-5-46-10-68-19-13-6-27-13-39-21-10-9-19-18-27-29l-18-27c-3-5-6-13-11-17-10 1-20 3-30 1-14-2-28-7-39-16a94 94 0 0 1-33-49c-2-11-4-23 1-33 4-8 11-14 18-19 9-6 19-10 29-12 4-1 8-1 11-3l-1-3-12-1-7-15c-8-23-9-46-7-70a276 276 0 0 1 54-139c10-12 22-23 35-32a277 277 0 0 1 128-30Z" fill="#8d5a3b"/><path d="M260 571c4 0 7 0 11 2 5 1 11 4 14 8 2 3 2 7 0 10-5 6-12 10-16 16 6 4 14 6 21 9 4 1 8 3 11 6l1 3-8-2-24-7c-4-1-8-3-9-7-1-3 1-7 3-10l15-13c-4-7-15-8-19-15ZM703 577l2 3 2 16a483 483 0 0 1-2 89c-2 11-5 23-10 33a198 198 0 0 1-106 71c-1 14-3 31-2 47l5 5c8 6 18 9 27 12a451 451 0 0 1 68 28c7 4 13 9 18 15-5 1-10-1-16-2-22-9-43-19-65-27l-35-13c-5-3-10-7-13-12-2-5-1-11-1-16 0-12 1-24 6-36-8 2-15 3-23 2 3-4 8-6 13-8 19-8 39-13 58-24 16-9 31-20 43-33 7-7 12-15 15-24 5-11 7-24 8-36 4-25 4-50 6-74 0-6 0-11 2-16Z" fill="#000"/><path d="M668 488c8 0 16 4 22 10 2 3 5 8 4 12 0 3-4 5-4 8-2 8-9 14-16 18-4 2-11 2-14-2-3-3-3-8-4-12 0-8 3-17 6-24-4 0-8 2-11 5-11 6-19 17-24 28-2 3-3 8-6 10-1 1-3 1-4-1v-9c4-13 12-25 22-34 9-6 19-9 29-9ZM444 498c20-1 43 2 60 13 9 5 17 13 20 23 2 4 0 7-2 11-2 3-7 5-11 7-12 3-24 1-36-1-5-1-11-2-14-6-4-5-3-11-1-17 1-7 3-14 9-20h-23c-17 2-33 9-47 20-2 2-5 4-8 3-5 0-8-5-7-9s4-6 7-8c16-10 35-14 53-16Z" fill="#141b29"/><path d="M480 404c10 1 19 0 29 3 9 3 18 10 22 19 4 6 2 16-6 19-6 4-15 3-23 2-20-3-40-9-60-14l-20-4-10-2-4-4c2-4 6-6 10-7l20-7 18-3 24-2ZM656 410c8 1 15 4 22 7l9 4c2 2 3 6 1 8l-10 4c-17 4-33 11-51 12l-9 1c-3 0-6-2-8-4-3-2-4-5-4-9 0-7 2-15 8-20 4-3 11-4 16-5 8 0 17 0 26 2Z" fill="#141b29"/><path d="M293 643c3-2 7-1 9 1 3 2 4 6 3 10-2 4-7 7-12 5-3-1-5-5-4-8 0-4 1-7 4-8Z" fill="#e8b86d"/><path d="m591 528 2 2 7 22c4 8 10 15 15 23 4 6 6 13 5 20-1 6-4 12-9 16-7 7-16 12-25 16-5 3-11 4-17 2l5-4c11-9 25-14 36-24 2-2 4-6 4-9-1-7-5-11-8-16-5-9-10-16-13-25-2-7-4-16-2-23Z" fill="#141b29"/><path d="m636 651-7 7c-7 8-14 16-23 23-8 7-17 13-27 16-11 4-23 4-35 3-16-2-31-5-45-12l-12-7c-1-2-1-4 1-5s6 0 8 1c12 4 24 8 37 9 17 2 34 2 50-3 8-2 15-6 21-10l24-17 8-5Z" fill="#141b29"/><path fill-rule="evenodd" clip-rule="evenodd" d="m550 141 7-6c-5-3-10-2-15-1h-2c-25 6-49 14-71 26-25 14-47 30-65 51a119 119 0 0 0-40-34 390 390 0 0 1-22-12h-8c-2 2-2 5-1 7a36 36 0 0 0 5 11 707 707 0 0 1 22 31l11 17h-2l-17 8-6 3-12 6-19 10-11 6-23 13-1 1-25 17c-10 8-19 18-26 28-8 13-10 27-13 41l-1 4-6 45-3 33-1 20-2 32-1 21c0 15-2 30-3 44a4695 4695 0 0 0-3 44c0 27 1 54 6 81 3 15 9 30 16 44a115 115 0 0 0 28 39l6 5 7-7 24-37a296 296 0 0 0 61 80 255 255 0 0 0 44 30c3 1 6 3 9 2 2 0 2-2 2-4l-6-6-6-6a305 305 0 0 1-38-105 557 557 0 0 1-7-148c8 30 20 59 36 85l2 3 16 25 1 1c3 4 5 7 9 9l-2-9-1-4a452 452 0 0 1-14-208 366 366 0 0 0 134-130c11-15 21-30 30-46l6 4c4 24 2 47-1 70v8c-3 20-8 39-17 57l-1 3-3 5c2 1 3 2 5 1 4-1 6-4 9-7l16-31c11-29 13-60 12-90a406 406 0 0 1 71 83 273 273 0 0 1 25 68 257 257 0 0 1-3 134c-1 3-2 6-1 9 5 0 9-3 12-6 6-6 11-14 16-21l1-1a204 204 0 0 0 33-75 582 582 0 0 0 10-84c-1-16-5-30-11-45a287 287 0 0 1 44 110c2 15 3 31 2 46v6l-1 11v2c0 3 0 5 3 7l3-7 4-7 2-6c11-26 15-56 13-85-3-37-16-73-36-103-20-31-46-58-75-80a357 357 0 0 0-215-72l5-5 25-28a122 122 0 0 1 32-24l12-7ZM438 385c16-23 32-47 45-72l-6 6-17 16a234 234 0 0 0-63 104c15-16 29-35 41-54Z" fill="#4a2e22"/></g><g transform="translate(10 -60)"></g></g></svg>
<path d="M30 240C30 186 42 152 60 147L70 163L80 147C98 152 110 186 110 240Z" fill="#3c5530" stroke="#e8b86d" stroke-opacity="0.55" stroke-width="1"/>
<path d="M60 147L70 163L80 147" fill="none" stroke="#e8b86d" stroke-width="1.2"/>

<g transform="translate(46 180) scale(0.95)"><circle r="9" fill="#e7cf7a" stroke="#141b29" stroke-width="0.7"/><path d="M0.00 -6.40L3.76 5.18L-6.09 -1.98L6.09 -1.98L-3.76 5.18Z" fill="none" stroke="#5c4632" stroke-width="1.1" stroke-linejoin="round"/></g><g transform="translate(70 180) scale(0.95)"><circle r="9" fill="#e7cf7a" stroke="#141b29" stroke-width="0.7"/><path d="M0.00 -6.40L3.76 5.18L-6.09 -1.98L6.09 -1.98L-3.76 5.18Z" fill="none" stroke="#5c4632" stroke-width="1.1" stroke-linejoin="round"/></g><g transform="translate(94 180) scale(0.95)"><circle r="9" fill="#e7cf7a" stroke="#141b29" stroke-width="0.7"/><path d="M0.00 -6.40L3.76 5.18L-6.09 -1.98L6.09 -1.98L-3.76 5.18Z" fill="none" stroke="#5c4632" stroke-width="1.1" stroke-linejoin="round"/></g>
<defs><linearGradient id="scrim" x1="0" y1="0" x2="0" y2="1">
  <stop offset="0" stop-color="#0f1420" stop-opacity="0.55"/><stop offset="0.14" stop-color="#0f1420" stop-opacity="0"/>
  <stop offset="0.78" stop-color="#0f1420" stop-opacity="0"/><stop offset="1" stop-color="#0f1420" stop-opacity="0.8"/>
</linearGradient></defs><rect width="140" height="240" fill="url(#scrim)"/>
</svg>